<svg width="24" height="24" viewBox="0 0 24 24" fill="none" xmlns="http://www.w3.org/2000/svg">
<path d="M20.705 6.29495C20.52 6.10495 20.28 6.00995 20.035 5.99995C19.765 5.98995 19.495 6.08995 19.29 6.28995L9.515 16.08L4.71 11.275C4.32 10.885 3.685 10.885 3.295 11.275C3.1 11.47 3 11.73 3 11.985C3 12.24 3.1 12.495 3.295 12.69L8.81 18.205C8.97 18.37 9.175 18.465 9.38 18.49C9.68 18.53 9.99 18.4349 10.22 18.205L20.705 7.70995C20.9 7.51495 21 7.25995 21 7.00495C21 6.74995 20.9 6.49495 20.705 6.29995V6.29495Z" fill="#333333"/>
</svg>
