<svg width="24" height="24" viewBox="0 0 24 24" fill="none" xmlns="http://www.w3.org/2000/svg">
<path fill-rule="evenodd" clip-rule="evenodd" d="M12.0001 20.1667L9.63098 15.4285H5.14293C4.19615 15.4285 3.42864 14.661 3.42864 13.7142V5.1428C3.42864 4.19603 4.19615 3.42852 5.14293 3.42852H18.8572C19.804 3.42852 20.5715 4.19603 20.5715 5.1428V13.7142C20.5715 14.661 19.804 15.4285 18.8572 15.4285H14.3692L12.0001 20.1667ZM18.8572 17.1428H15.4286L13.5334 20.9333C12.9016 22.1969 11.0985 22.1969 10.4668 20.9333L8.5715 17.1428H5.14293C3.24938 17.1428 1.71436 15.6078 1.71436 13.7142V5.1428C1.71436 3.24926 3.24938 1.71423 5.14293 1.71423H18.8572C20.7508 1.71423 22.2858 3.24926 22.2858 5.1428V13.7142C22.2858 15.6078 20.7508 17.1428 18.8572 17.1428ZM6.85721 10.7142C7.56729 10.7142 8.14293 10.1386 8.14293 9.42852C8.14293 8.71844 7.56729 8.1428 6.85721 8.1428C6.14713 8.1428 5.5715 8.71844 5.5715 9.42852C5.5715 10.1386 6.14713 10.7142 6.85721 10.7142ZM13.2858 9.42852C13.2858 10.1386 12.7101 10.7142 12.0001 10.7142C11.29 10.7142 10.7144 10.1386 10.7144 9.42852C10.7144 8.71844 11.29 8.1428 12.0001 8.1428C12.7101 8.1428 13.2858 8.71844 13.2858 9.42852ZM17.1429 10.7142C17.853 10.7142 18.4286 10.1386 18.4286 9.42852C18.4286 8.71844 17.853 8.1428 17.1429 8.1428C16.4328 8.1428 15.8572 8.71844 15.8572 9.42852C15.8572 10.1386 16.4328 10.7142 17.1429 10.7142Z" fill="#333333"/>
</svg>
