<svg width="24" height="24" viewBox="0 0 24 24" fill="none" xmlns="http://www.w3.org/2000/svg">
<path d="M9.75316 5C9.94316 5 10.1382 5.075 10.2832 5.22L16.5332 11.47C16.6782 11.615 16.7532 11.81 16.7532 12C16.7532 12.19 16.6782 12.385 16.5332 12.53L10.2832 18.78C10.1382 18.925 9.94316 19 9.75316 19C9.56316 19 9.36816 18.925 9.22316 18.78C9.07816 18.635 9.00316 18.445 9.00316 18.26C9.00316 18.065 9.07316 17.87 9.22316 17.72L14.9432 12L9.22316 6.28C9.05816 6.115 8.98316 5.89 9.00316 5.675C9.01816 5.51 9.09316 5.345 9.21816 5.22C9.34816 5.095 9.49816 5.025 9.65816 5.005C9.69316 5 9.72316 5 9.75316 5Z" fill="#333333"/>
</svg>
