<svg width="24" height="24" viewBox="0 0 24 24" fill="none" xmlns="http://www.w3.org/2000/svg">
<path d="M13.06 12L17.78 7.28C17.925 7.135 18 6.94 18 6.75C18 6.56 17.925 6.365 17.78 6.22C17.635 6.075 17.445 6 17.25 6C17.055 6 16.865 6.075 16.72 6.22L12 10.94L7.28 6.22C7.135 6.075 6.94 6 6.75 6C6.56 6 6.365 6.075 6.22 6.22C6.075 6.365 6 6.555 6 6.75C6 6.945 6.075 7.135 6.22 7.28L10.94 12L6.22 16.72C6.075 16.865 6 17.06 6 17.25C6 17.44 6.075 17.635 6.22 17.78C6.365 17.925 6.56 18 6.75 18C6.94 18 7.135 17.925 7.28 17.78L12 13.06L16.72 17.78C16.865 17.925 17.06 18 17.25 18C17.44 18 17.635 17.925 17.78 17.78C17.925 17.635 18 17.44 18 17.25C18 17.06 17.925 16.865 17.78 16.72L13.06 12Z" fill="#333333"/>
</svg>
