<svg width="24" height="24" viewBox="0 0 24 24" fill="none" xmlns="http://www.w3.org/2000/svg">
<path d="M12 2C6.475 2 2 6.475 2 12C2 17.525 6.475 22 12 22C17.525 22 22 17.525 22 12C22 6.475 17.525 2 12 2ZM15.535 14.475C15.825 14.765 15.825 15.245 15.535 15.535C15.245 15.825 14.765 15.825 14.475 15.535L12 13.06L9.525 15.535C9.235 15.825 8.755 15.825 8.465 15.535C8.175 15.245 8.175 14.765 8.465 14.475L10.94 12L8.465 9.525C8.175 9.235 8.175 8.755 8.465 8.465C8.755 8.175 9.235 8.175 9.525 8.465L12 10.94L14.475 8.465C14.765 8.175 15.245 8.175 15.535 8.465C15.825 8.755 15.825 9.235 15.535 9.525L13.06 12L15.535 14.475Z" fill="#333333"/>
</svg>
