<svg width="24" height="24" viewBox="0 0 24 24" fill="none" xmlns="http://www.w3.org/2000/svg">
<path fill-rule="evenodd" clip-rule="evenodd" d="M17.248 9.404L10.995 15.6575C10.8345 15.8175 10.621 15.8815 10.411 15.8665C10.202 15.8815 9.988 15.8175 9.828 15.6575L6.752 12.581C6.459 12.2885 6.459 11.813 6.752 11.52C7.045 11.227 7.5195 11.227 7.8125 11.52L10.411 14.1195L16.1875 8.343C16.4805 8.0505 16.955 8.0505 17.248 8.343C17.541 8.636 17.541 9.111 17.248 9.404ZM12 2C6.477 2 2 6.477 2 12C2 17.523 6.477 22 12 22C17.523 22 22 17.523 22 12C22 6.477 17.523 2 12 2Z" fill="#333333"/>
</svg>
