<svg width="24" height="24" viewBox="0 0 24 24" fill="none" xmlns="http://www.w3.org/2000/svg">
<path fill-rule="evenodd" clip-rule="evenodd" d="M3.5 12C3.5 16.687 7.3125 20.5 12 20.5C16.6865 20.5 20.5 16.687 20.5 12C20.5 7.313 16.6865 3.5 12 3.5C7.3125 3.5 3.5 7.313 3.5 12ZM2 12C2 6.477 6.477 2 12 2C17.5225 2 22 6.477 22 12C22 17.523 17.5225 22 12 22C6.477 22 2 17.523 2 12ZM10.411 14.1193L16.1875 8.34275C16.4805 8.05025 16.955 8.05025 17.248 8.34275C17.541 8.63575 17.541 9.11075 17.248 9.40375L10.9945 15.6573C10.8345 15.8173 10.621 15.8813 10.411 15.8663C10.2015 15.8813 9.9885 15.8173 9.828 15.6573L6.752 12.5808C6.459 12.2883 6.459 11.8128 6.752 11.5198C7.045 11.2273 7.5195 11.2273 7.8125 11.5198L10.411 14.1193Z" fill="#333333"/>
</svg>
