<svg width="24" height="24" viewBox="0 0 24 24" fill="none" xmlns="http://www.w3.org/2000/svg">
<path fill-rule="evenodd" clip-rule="evenodd" d="M15 9.5C15 11.1569 13.6569 12.5 12 12.5C10.3431 12.5 9 11.1569 9 9.5C9 7.84315 10.3431 6.5 12 6.5C13.6569 6.5 15 7.84315 15 9.5ZM13.5 9.5C13.5 10.3284 12.8284 11 12 11C11.1716 11 10.5 10.3284 10.5 9.5C10.5 8.67157 11.1716 8 12 8C12.8284 8 13.5 8.67157 13.5 9.5Z" fill="#333333"/>
<path fill-rule="evenodd" clip-rule="evenodd" d="M20.5 10C20.5 15.5228 12 23 12 23C12 23 3.5 15.5228 3.5 10C3.5 4.47715 7.5 1.5 12 1.5C16.5 1.5 20.5 4.47715 20.5 10ZM19.25 10C19.25 11.0831 18.8247 12.3715 18.0717 13.7679C17.328 15.1469 16.3208 16.5289 15.2882 17.7726C14.2592 19.0122 13.2266 20.0886 12.4496 20.8562C12.2875 21.0164 12.1368 21.1628 12 21.2941C11.8632 21.1628 11.7125 21.0164 11.5504 20.8562C10.7734 20.0886 9.74082 19.0122 8.71176 17.7726C7.67924 16.5289 6.67201 15.1469 5.92833 13.7679C5.17528 12.3715 4.75 11.0831 4.75 10C4.75 7.56109 5.62283 5.7796 6.90791 4.59968C8.20969 3.40442 10.0197 2.75 12 2.75C13.9803 2.75 15.7903 3.40442 17.0921 4.59968C18.3772 5.7796 19.25 7.56109 19.25 10Z" fill="#333333"/>
</svg>
