<svg width="24" height="24" viewBox="0 0 24 24" fill="none" xmlns="http://www.w3.org/2000/svg">
<path fill-rule="evenodd" clip-rule="evenodd" d="M0.25 3C0.25 2.58579 0.585786 2.25 1 2.25H4.5C4.83633 2.25 5.13154 2.4739 5.22222 2.79778L5.90885 5.25H22.5C22.7326 5.25 22.952 5.3579 23.094 5.5421C23.236 5.7263 23.2845 5.96595 23.2253 6.19087L20.7253 15.6909C20.6386 16.0204 20.3407 16.25 20 16.25H8C7.66367 16.25 7.36846 16.0261 7.27778 15.7022L3.93115 3.75H1C0.585786 3.75 0.25 3.41421 0.25 3ZM6.32885 6.75L8.56885 14.75H19.4218L21.5271 6.75H6.32885Z" fill="#333333"/>
<path fill-rule="evenodd" clip-rule="evenodd" d="M9.5 22.5C10.8807 22.5 12 21.3807 12 20C12 18.6193 10.8807 17.5 9.5 17.5C8.11929 17.5 7 18.6193 7 20C7 21.3807 8.11929 22.5 9.5 22.5ZM9.5 21C10.0523 21 10.5 20.5523 10.5 20C10.5 19.4477 10.0523 19 9.5 19C8.94772 19 8.5 19.4477 8.5 20C8.5 20.5523 8.94772 21 9.5 21Z" fill="#333333"/>
<path fill-rule="evenodd" clip-rule="evenodd" d="M21 20C21 21.3807 19.8807 22.5 18.5 22.5C17.1193 22.5 16 21.3807 16 20C16 18.6193 17.1193 17.5 18.5 17.5C19.8807 17.5 21 18.6193 21 20ZM19.5 20C19.5 20.5523 19.0523 21 18.5 21C17.9477 21 17.5 20.5523 17.5 20C17.5 19.4477 17.9477 19 18.5 19C19.0523 19 19.5 19.4477 19.5 20Z" fill="#333333"/>
</svg>
