<svg width="181" height="33" viewBox="0 0 181 33" fill="none" xmlns="http://www.w3.org/2000/svg">
<path d="M4.33989 8.77211V14.9588H12.9273V19.0216H4.33989V32.78H0V8.17191C0 5.89424 0.723315 4.06287 2.16994 2.6778C3.15488 1.75442 4.26294 1.15423 5.49411 0.877211C6.72529 0.600197 8.23347 0.46169 10.0187 0.46169H14.9126V4.52456H9.41848C6.03275 4.52456 4.33989 5.94041 4.33989 8.77211Z" fill="white"/>
<path d="M26.1718 23.5462H15.83V19.8527H26.1718V23.5462Z" fill="white"/>
<path d="M44.395 22.7613H44.672L48.4579 8.4951C49.2581 5.41716 50.4893 3.30878 52.1514 2.16994C53.8135 1.03111 56.322 0.46169 59.6769 0.46169V32.78H55.337V5.3556C54.5368 5.69418 53.9212 6.17126 53.4903 6.78685C53.0902 7.40243 52.7054 8.32581 52.3361 9.55699L46.5649 29.3635H42.5021L36.6848 9.55699C36.3154 8.29503 35.9307 7.37165 35.5305 6.78685C35.1304 6.17126 34.5302 5.69418 33.7299 5.3556V32.78H29.3901V0.46169C32.745 0.46169 35.2381 1.0465 36.8694 2.21611C38.5315 3.35495 39.7781 5.44794 40.6091 8.4951L44.395 22.7613Z" fill="white"/>
<path d="M68.2443 32.78H64.1352V12.4656C64.1352 9.14146 65.1971 6.30976 67.3209 3.97054C69.4755 1.6313 72.2456 0.46169 75.6313 0.46169H86.204V32.78H81.8642V4.52456H75.6313C73.3844 4.52456 71.5838 5.18632 70.2296 6.50983C68.906 7.83334 68.2443 9.94173 68.2443 12.835V16.7594C69.9679 14.9434 72.4303 14.0354 75.6313 14.0354H79.8327V18.0983H75.6313C73.8461 18.0983 72.3841 18.3137 71.2453 18.7446C70.1372 19.1755 69.1369 19.9142 68.2443 20.9607V32.78Z" fill="white"/>
<path d="M90.9163 32.78V11.7731C90.9163 8.0488 91.8243 5.15554 93.6402 3.09333C95.487 1.03111 98.1033 0 101.489 0C104.905 0 107.522 0.831042 109.338 2.49313C111.184 4.15521 112.108 6.49444 112.108 9.51082C112.108 11.4499 111.646 13.0351 110.723 14.2662C109.799 15.4974 108.23 16.4669 106.014 17.1749V17.3595C108.322 18.2521 109.861 19.5295 110.63 21.1916C111.431 22.8229 111.831 25.5315 111.831 29.3173V32.78H107.491V26.8704C107.491 24.5311 106.829 22.7152 105.506 21.4224C104.182 20.0989 102.274 19.4372 99.7807 19.4372H97.2876V15.3743H99.9192C102.874 15.3743 104.921 14.7741 106.06 13.5737C107.199 12.3733 107.768 10.9421 107.768 9.27997C107.768 7.71023 107.199 6.44827 106.06 5.49411C104.952 4.53995 103.474 4.06287 101.627 4.06287C99.5037 4.06287 97.9032 4.66307 96.8259 5.86347C95.7794 7.06386 95.2562 9.03374 95.2562 11.7731V32.78H90.9163Z" fill="white"/>
<path d="M135.88 27.0089V32.78H131.447V27.0089C131.447 23.5308 130.678 21.0838 129.139 19.668C127.631 18.2214 124.737 17.4827 120.459 17.4519V32.78H116.119V0.46169H120.459V13.6199C122.737 13.6814 124.091 13.743 124.522 13.8045L131.032 0.46169H135.741L128.446 14.8203C133.402 16.6362 135.88 20.6991 135.88 27.0089Z" fill="white"/>
<path d="M158.018 32.78H139.643V8.17191C139.643 5.89424 140.367 4.06287 141.813 2.6778C142.798 1.75442 143.906 1.15423 145.137 0.877211C146.368 0.600197 147.877 0.46169 149.662 0.46169H158.018V4.52456H149.062C145.676 4.52456 143.983 5.94041 143.983 8.77211V14.0354H154.648V18.0983H143.983V28.7171H158.018V32.78Z" fill="white"/>
<path d="M159.703 4.52456V0.46169H180.017V4.52456H172.03V32.78H167.69V4.52456H159.703Z" fill="white"/>
</svg>
