<svg width="24" height="25" viewBox="0 0 24 25" fill="none" xmlns="http://www.w3.org/2000/svg">
<g clip-path="url(#clip0_12_1724)">
<path fill-rule="evenodd" clip-rule="evenodd" d="M16.3002 10.302C16.3002 6.63242 13.3517 3.71343 9.82019 3.80172L9.8002 3.80197C6.23486 3.80197 3.3002 6.65093 3.3002 10.302C3.3002 13.8673 6.14916 16.802 9.8002 16.802C11.4122 16.802 12.8288 16.2682 13.9834 15.2913L13.9957 15.2811C15.407 14.1344 16.3002 12.3633 16.3002 10.302ZM9.79021 2.20198C14.2541 2.09601 17.9002 5.77491 17.9002 10.302C17.9002 12.2806 17.2278 14.071 16.0844 15.4528L21.6316 21L20.5002 22.1313L14.9432 16.5744C13.5111 17.7581 11.7545 18.402 9.8002 18.402C5.25124 18.402 1.7002 14.7366 1.7002 10.302C1.7002 5.75642 5.36003 2.2073 9.79021 2.20198Z" fill="#333333"/>
</g>
<defs>
<clipPath id="clip0_12_1724">
<rect width="24" height="24" fill="white" transform="translate(0 0.5)"/>
</clipPath>
</defs>
</svg>
