<svg width="25" height="25" viewBox="0 0 25 25" fill="none" xmlns="http://www.w3.org/2000/svg">
<g clip-path="url(#clip0_12_1727)">
<path d="M12.5004 10.1301C14.5107 10.1301 16.1404 8.50041 16.1404 6.4901C16.1404 4.47978 14.5107 2.8501 12.5004 2.8501C10.49 2.8501 8.86035 4.47978 8.86035 6.4901C8.86035 8.50041 10.49 10.1301 12.5004 10.1301Z" fill="#5F0080" stroke="#5F0080" stroke-width="1.6" stroke-linecap="square" stroke-linejoin="round"/>
<path d="M12.4003 22.44H21.3203C21.9603 22.44 22.4503 21.84 22.3003 21.22C21.3603 17.43 18.2103 12.73 12.5003 12.73H12.5103C6.79027 12.73 3.65027 17.42 2.71027 21.22C2.55027 21.84 3.05027 22.44 3.69027 22.44H12.4003Z" fill="#5F0080" stroke="#5F0080" stroke-width="1.6" stroke-linejoin="round"/>
</g>
<defs>
<clipPath id="clip0_12_1727">
<rect width="24" height="24" fill="white" transform="translate(0.5 0.5)"/>
</clipPath>
</defs>
</svg>
